<svg width="15" height="14" viewBox="0 0 15 14" fill="none" xmlns="http://www.w3.org/2000/svg">
<path d="M2.21506 9.50888C2.37153 9.6653 2.58371 9.75317 2.80496 9.75317C3.02621 9.75317 3.2384 9.6653 3.39486 9.50888L7.52502 5.37872L11.6552 9.50888C11.8125 9.66087 12.0233 9.74497 12.2421 9.74307C12.4608 9.74117 12.6701 9.65342 12.8248 9.49872C12.9795 9.34402 13.0673 9.13474 13.0692 8.91597C13.0711 8.6972 12.987 8.48644 12.835 8.32907L8.11492 3.60901C7.95845 3.45259 7.74627 3.36472 7.52502 3.36472C7.30377 3.36472 7.09159 3.45259 6.93512 3.60901L2.21506 8.32907C2.05864 8.48554 1.97076 8.69773 1.97076 8.91898C1.97076 9.14022 2.05864 9.35241 2.21506 9.50888Z" fill="white"/>
</svg>
