<svg width="17" height="17" viewBox="0 0 17 17" fill="none" xmlns="http://www.w3.org/2000/svg">
<path d="M1.67749 5.71417C1.86502 5.5267 2.11933 5.42139 2.38449 5.42139C2.64966 5.42139 2.90396 5.5267 3.09149 5.71417L8.04149 10.6642L12.9915 5.71417C13.1801 5.53202 13.4327 5.43122 13.6949 5.4335C13.9571 5.43578 14.2079 5.54095 14.3933 5.72635C14.5787 5.91176 14.6839 6.16257 14.6862 6.42477C14.6884 6.68697 14.5876 6.93957 14.4055 7.12817L8.74849 12.7852C8.56096 12.9726 8.30666 13.078 8.04149 13.078C7.77633 13.078 7.52202 12.9726 7.33449 12.7852L1.67749 7.12817C1.49002 6.94065 1.3847 6.68634 1.3847 6.42117C1.3847 6.15601 1.49002 5.9017 1.67749 5.71417Z" fill="white"/>
</svg>
