<svg width="17" height="17" viewBox="0 0 17 17" fill="none" xmlns="http://www.w3.org/2000/svg">
<path d="M2.28113 5.32526C2.46866 5.13779 2.72296 5.03247 2.98813 5.03247C3.25329 5.03247 3.5076 5.13779 3.69513 5.32526L8.64513 10.2753L13.5951 5.32526C13.7837 5.1431 14.0363 5.0423 14.2985 5.04458C14.5607 5.04686 14.8115 5.15203 14.9969 5.33744C15.1824 5.52285 15.2875 5.77366 15.2898 6.03586C15.2921 6.29805 15.1913 6.55065 15.0091 6.73926L9.35213 12.3963C9.1646 12.5837 8.91029 12.689 8.64513 12.689C8.37996 12.689 8.12566 12.5837 7.93813 12.3963L2.28113 6.73926C2.09366 6.55173 1.98834 6.29742 1.98834 6.03226C1.98834 5.76709 2.09366 5.51278 2.28113 5.32526Z" fill="white"/>
</svg>
