<svg width="15" height="14" viewBox="0 0 15 14" fill="none" xmlns="http://www.w3.org/2000/svg">
<path d="M2.21506 4.99112C2.37153 4.8347 2.58371 4.74683 2.80496 4.74683C3.02621 4.74683 3.2384 4.8347 3.39486 4.99112L7.52502 9.12128L11.6552 4.99112C11.8125 4.83913 12.0233 4.75503 12.2421 4.75693C12.4608 4.75883 12.6701 4.84658 12.8248 5.00128C12.9795 5.15598 13.0673 5.36526 13.0692 5.58403C13.0711 5.8028 12.987 6.01356 12.835 6.17093L8.11492 10.891C7.95845 11.0474 7.74627 11.1353 7.52502 11.1353C7.30377 11.1353 7.09159 11.0474 6.93512 10.891L2.21506 6.17093C2.05864 6.01446 1.97076 5.80227 1.97076 5.58102C1.97076 5.35978 2.05864 5.14759 2.21506 4.99112Z" fill="white"/>
</svg>
