<svg width="15" height="14" viewBox="0 0 15 14" fill="none" xmlns="http://www.w3.org/2000/svg">
<path d="M2.215 4.99149C2.37147 4.83507 2.58365 4.74719 2.8049 4.74719C3.02615 4.74719 3.23833 4.83507 3.3948 4.99149L7.52496 9.12164L11.6551 4.99149C11.8125 4.8395 12.0232 4.7554 12.242 4.7573C12.4608 4.7592 12.6701 4.84695 12.8248 5.00165C12.9795 5.15635 13.0672 5.36562 13.0691 5.58439C13.071 5.80316 12.9869 6.01393 12.8349 6.17129L8.11486 10.8914C7.95839 11.0478 7.74621 11.1356 7.52496 11.1356C7.30371 11.1356 7.09152 11.0478 6.93506 10.8914L2.215 6.17129C2.05858 6.01482 1.9707 5.80264 1.9707 5.58139C1.9707 5.36014 2.05858 5.14795 2.215 4.99149Z" fill="white"/>
</svg>
