<svg width="28" height="28" viewBox="0 0 28 28" fill="none" xmlns="http://www.w3.org/2000/svg">
<path d="M18.6434 10.6335C19.2752 10.0018 19.9024 8.52766 17.27 10.3176C14.8111 12.01 12.3354 13.6779 9.84353 15.3213C9.46406 15.4929 9.05382 15.586 8.63747 15.5951C8.22111 15.6041 7.80721 15.5289 7.42066 15.3739C5.84128 14.9002 3.99752 14.2684 3.99752 14.2684C3.99752 14.2684 2.73859 13.4776 4.89365 12.6352C4.89365 12.6352 14.0049 8.89619 17.1648 7.57888C18.3757 7.05243 22.4831 5.36775 22.4831 5.36775C22.4831 5.36775 24.3796 4.62956 24.2216 6.42067C24.169 7.15772 23.7478 9.73967 23.3266 12.53C22.6938 16.4796 22.0094 20.7988 22.0094 20.7988C22.0094 20.7988 21.904 22.0096 21.0091 22.2203C20.0511 22.204 19.1253 21.8707 18.3767 21.2726C18.1662 21.1146 14.4271 18.7444 13.0572 17.5863C12.9179 17.4918 12.8046 17.3637 12.7281 17.2138C12.6515 17.0639 12.6142 16.8971 12.6194 16.7288C12.6247 16.5605 12.6724 16.3964 12.7582 16.2516C12.8439 16.1067 12.9649 15.986 13.1099 15.9004C14.9888 14.1814 16.8337 12.4253 18.6434 10.6335Z" fill="#FF012A"/>
</svg>
