<svg width="28" height="28" viewBox="0 0 28 28" fill="none" xmlns="http://www.w3.org/2000/svg">
<path d="M25.1786 6.63819C24.3183 7.0114 23.4086 7.25811 22.4776 7.37066C23.4598 6.78391 24.1958 5.86084 24.5491 4.77269C23.6262 5.32211 22.6159 5.70921 21.5621 5.91717C20.8576 5.15331 19.9197 4.64484 18.8952 4.47152C17.8708 4.29819 16.8176 4.4698 15.9012 4.95944C14.9847 5.4491 14.2567 6.22907 13.8313 7.17705C13.4059 8.12503 13.3073 9.1874 13.5507 10.1975C11.6845 10.1031 9.8591 9.61722 8.19298 8.77134C6.52686 7.92547 5.05733 6.73855 3.87983 5.2877C3.46683 6.00891 3.24982 6.82568 3.25036 7.65678C3.2489 8.42859 3.43831 9.18879 3.80173 9.8697C4.16514 10.5506 4.69129 11.1311 5.33332 11.5595C4.5871 11.5391 3.85681 11.3389 3.20459 10.9758V11.033C3.21018 12.1145 3.58912 13.1607 4.27732 13.9948C4.96553 14.829 5.92074 15.3999 6.98137 15.611C6.57309 15.7351 6.14919 15.8007 5.72244 15.8055C5.42704 15.8021 5.13237 15.7752 4.84119 15.7254C5.14323 16.6556 5.72773 17.4686 6.51336 18.0511C7.299 18.6336 8.24669 18.9568 9.22455 18.9757C7.5733 20.2749 5.53461 20.9841 3.43348 20.99C3.05093 20.9913 2.66867 20.9683 2.289 20.9213C4.43425 22.3064 6.93423 23.0417 9.48778 23.0386C11.2499 23.0569 12.998 22.7239 14.63 22.059C16.2621 21.3941 17.7452 20.4107 18.9929 19.1663C20.2406 17.9218 21.2279 16.4412 21.8969 14.8108C22.566 13.1805 22.9034 11.4332 22.8897 9.67106C22.8897 9.47649 22.8897 9.2705 22.8897 9.06449C23.7877 8.39475 24.5623 7.57371 25.1786 6.63819Z" fill="#FF012A"/>
</svg>
